<svg xmlns="http://www.w3.org/2000/svg" width="40" height="40" viewBox="0 0 40 40">
    <g fill="none" fill-rule="evenodd">
        <path fill="#EB5225" fill-rule="nonzero" d="M38.57 25.602c.415-1.423.862-3.45.862-5.602 0-10.8-8.78-19.59-19.578-19.603L19.85.396h-.023C9.017.396.223 9.19.223 20c0 10.8 8.78 19.589 19.577 19.603l.004.001h.05c2.379-.004 4.946-.472 7.125-1.285a8.953 8.953 0 0 0 3.77.836c4.978 0 9.028-4.05 9.028-9.028a9.037 9.037 0 0 0-1.207-4.525zM16.829 1.95c-2.88 2.003-5.176 5.052-6.633 8.702H4.103c2.708-4.536 7.32-7.807 12.726-8.702zM3.395 11.957h6.326a25.523 25.523 0 0 0-1.271 7.39H1.544a18.176 18.176 0 0 1 1.851-7.39zm-1.85 8.695h6.904c.062 2.603.501 5.105 1.264 7.404l-6.318-.012a18.178 18.178 0 0 1-1.85-7.392zm2.56 8.698l6.082.01c1.454 3.646 3.748 6.69 6.624 8.687-5.397-.9-10.002-4.167-12.707-8.697zm15.07 8.595c-3.293-1.662-5.94-4.732-7.581-8.581l7.582.014v8.567zm0-9.871l-8.088-.016c-.804-2.279-1.269-4.787-1.334-7.406h9.423v7.422zm0-8.726H9.755c.069-2.613.536-5.116 1.34-7.391h8.082v7.39zm0-8.696h-7.574c1.642-3.85 4.286-6.924 7.575-8.594v8.594zm18.936 8.696h-6.906a25.523 25.523 0 0 0-1.271-7.391h6.326a18.175 18.175 0 0 1 1.85 7.39zm.001 1.304a19.348 19.348 0 0 1-.526 3.575 9.025 9.025 0 0 0-3.47-2.478 8.951 8.951 0 0 0-2.863-.626c-.004-.154-.01-.313-.017-.47h6.876zm-2.56-10h-6.093c-1.457-3.65-3.754-6.699-6.633-8.702 5.406.895 10.018 4.166 12.726 8.702zM20.48 2.058c3.288 1.67 5.932 4.745 7.574 8.594H20.48V2.058zm0 9.899h8.08c.804 2.275 1.271 4.778 1.34 7.39h-9.42v-7.39zm0 8.695h9.45l.001.02c.007.157.014.316.018.464a9.036 9.036 0 0 0-7.992 6.943l-1.477-.002v-7.425zm0 8.729l1.275.002c-.02.247-.035.496-.035.744 0 2.103.73 4.036 1.94 5.572a15.105 15.105 0 0 1-3.18 2.238v-8.556zm2.313 8.679a17.282 17.282 0 0 0 1.745-1.397c.298.282.615.544.949.785-.866.262-1.774.468-2.694.612z"/>
        <path fill="#FFF" d="M29.731 27.902l.175-.175a1.88 1.88 0 0 0 .554-1.338 1.88 1.88 0 0 0-.554-1.339 1.88 1.88 0 0 0-1.339-.554c-.505 0-.98.197-1.339.554l-1.301 1.301a1.897 1.897 0 0 0 0 2.678c.358.357.833.554 1.34.554.504 0 .98-.197 1.338-.555l.204-.204 2.717 2.716-.978.98a.652.652 0 1 0 .922.921l.979-.978.418.417-1.472 1.473a.652.652 0 1 0 .922.922l1.472-1.472.39.39-1.429 1.43a.652.652 0 1 0 .923.922l1.89-1.892a.652.652 0 0 0 0-.922l-5.832-5.83z"/>
        <path fill="#EB5225" d="M28.983 26.804l-1.3 1.301a.603.603 0 0 1-.833.002.59.59 0 0 1 0-.834l1.3-1.3a.584.584 0 0 1 .833 0 .583.583 0 0 1 0 .831z"/>
    </g>
</svg>
