<svg xmlns="http://www.w3.org/2000/svg" width="65" height="60" viewBox="0 0 65 60">
    <defs>
        <linearGradient id="a" x1="50%" x2="50%" y1="0%" y2="97.461%">
            <stop offset="0%" stop-color="#FFF" stop-opacity="0"/>
            <stop offset="100%" stop-color="#FFF" stop-opacity=".275"/>
        </linearGradient>
    </defs>
    <g fill="none" fill-rule="evenodd">
        <rect width="65" height="60" fill="#F39022" rx="3"/>
        <g fill="#FFF">
            <path d="M41.714 30.476L46.249 37h-2.694l-4.143-6.311h-1.704V37h-2.233V22.338h4.49c1.588 0 2.877.34 3.82 1.02.944.7 1.543 1.763 1.543 3.102 0 2.571-1.934 3.719-3.614 4.016zm1.312-3.973c0-.872-.3-1.488-1.013-1.955-.714-.49-1.565-.532-2.67-.532h-1.635v4.973h1.635c1.105 0 1.956-.043 2.67-.51.714-.489 1.013-1.084 1.013-1.977zM32.23 33.579l.966 1.508c-.99 1.02-2.785 2.168-5.801 2.168-4.627 0-8.127-2.996-8.127-7.565 0-4.569 3.569-7.565 8.127-7.565 2.97 0 4.765 1.147 5.64 1.934l-.944 1.657c-.622-.722-2.394-1.785-4.604-1.785-3.43 0-5.916 2.274-5.916 5.716 0 3.443 2.509 5.717 5.916 5.717 2.095 0 3.706-.744 4.742-1.785z"/>
        </g>
        <path fill="url(#a)" d="M1.083 1h62.834v58C45.66 25.82 24.717 6.486 1.083 1z"/>
    </g>
</svg>
