<svg xmlns="http://www.w3.org/2000/svg" width="60" height="60" viewBox="0 0 60 60">
    <g fill="#EB5225" fill-rule="nonzero">
        <path d="M31.619 35.327c0-.874-.722-1.577-1.619-1.577s-1.619.703-1.619 1.577c0 .476.221.907.56 1.202l-.816 3.221h3.75l-.815-3.221c.338-.284.559-.726.559-1.202zM38.492 24.137h-1.585v-3.164c.06-1.924-.65-3.755-1.998-5.17a7.158 7.158 0 0 0-4.966-2.224c-1.916-.047-3.807.718-5.215 2.086-1.442 1.425-2.199 3.303-2.14 5.285v3.152h-1.584v-3.13a8.636 8.636 0 0 1 2.601-6.42c1.703-1.68 4.02-2.607 6.373-2.55 2.306.059 4.458 1.02 6.066 2.712 1.644 1.704 2.507 3.94 2.424 6.27v3.13h.024v.023z"/>
        <path d="M41.754 25.5H18.185L16.5 27.133v19.34L18.075 48h23.63l1.795-1.74V27.204L41.754 25.5zm-11.76 16.262c-2.858 0-5.178-2.248-5.178-5.018 0-2.77 2.32-5.018 5.178-5.018 2.857 0 5.178 2.248 5.178 5.018 0 2.77-2.32 5.018-5.178 5.018z"/>
        <path d="M30 60c-8.016 0-15.552-3.12-21.216-8.784C3.12 45.552 0 38.016 0 30c0-8.016 3.12-15.552 8.784-21.216C14.448 3.12 21.984 0 30 0c8.016 0 15.552 3.12 21.216 8.784C56.88 14.448 60 21.984 60 30c0 8.016-3.12 15.552-8.784 21.216C45.552 56.88 38.016 60 30 60zm0-58.08C14.52 1.92 1.92 14.52 1.92 30c0 15.48 12.6 28.08 28.08 28.08 15.48 0 28.08-12.6 28.08-28.08 0-15.48-12.6-28.08-28.08-28.08z"/>
    </g>
</svg>
