<svg xmlns="http://www.w3.org/2000/svg" width="40" height="40" viewBox="0 0 40 40">
    <g fill="#EB5225" fill-rule="nonzero">
        <path d="M5.879 22.121h6.303V20.91H5.879c-2.546 0-4.667-2.06-4.667-4.606a4.548 4.548 0 0 1 3.818-4.485c.182-.06.303-.121.425-.303.06-.182.12-.363.06-.485-.303-.788-.424-1.575-.424-2.424 0-4.06 3.333-7.394 7.515-7.394 2.788 0 5.273 1.515 6.606 3.879.121.182.243.303.485.303.182 0 .424-.06.545-.182C21.697 3.515 23.758 2.545 26 2.545c4.121 0 7.515 3.334 7.515 7.394 0 .303-.06.667-.121 1.091 0 .182 0 .364.121.485a.688.688 0 0 0 .485.182h.182c2.545 0 4.666 2.06 4.666 4.606 0 2.545-2.12 4.606-4.666 4.606h-6.364v1.212h6.303c3.212 0 5.879-2.606 5.879-5.818 0-3.03-2.364-5.515-5.333-5.758V9.94c0-4.727-3.94-8.606-8.728-8.606-2.303 0-4.484.91-6.12 2.485C18.241 1.455 15.514 0 12.605 0 7.758 0 3.88 3.879 3.88 8.606c0 .727.121 1.455.303 2.182C1.697 11.515 0 13.758 0 16.303c0 3.212 2.667 5.818 5.879 5.818z"/>
        <path d="M37.697 29.212h-3.94v-3.94c0-.363-.242-.605-.605-.605H20.788v-1.03c2-.182 3.879-1.03 5.394-2.485 1.273-1.273 2.121-2.788 2.424-4.546l.424.667c.182.303.546.363.849.182.303-.182.363-.546.182-.849l-1.394-2.06c-.182-.304-.606-.364-.91-.122L26 15.818c-.242.182-.303.606-.121.849.182.242.606.303.848.12l.667-.545a7.804 7.804 0 0 1-2.121 4 7.82 7.82 0 0 1-5.394 2.182c-2 0-3.94-.848-5.334-2.303a7.376 7.376 0 0 1-1.818-3.03l-1.212.364.026.079a8.694 8.694 0 0 0 2.095 3.436c1.576 1.575 3.637 2.485 5.88 2.606v1.03H7.151c-.364 0-.607.242-.607.606v3.94H2.303c-.364 0-.606.242-.606.606v9.636c0 .364.242.606.606.606h9.03c.364 0 .606-.242.606-.606v-9.576c0-.363-.242-.606-.606-.606H7.758V25.88h11.818v3.333h-4.06c-.364 0-.607.243-.607.606v9.576c0 .364.243.606.606.606h9.03c.364 0 .607-.242.607-.606v-9.576c0-.363-.243-.606-.607-.606h-3.757V25.88h11.818v3.333h-3.94c-.363 0-.605.243-.605.606v9.576c0 .364.242.606.606.606h9.03c.364 0 .606-.242.606-.606v-9.576c0-.363-.242-.606-.606-.606zm-26.97 9.576H2.91v-8.364h7.818v8.364zm13.212 0h-7.878v-8.364h7.818v8.364h.06zm13.152 0h-7.818v-8.364h7.818v8.364zM27.212 12.667l1.152-.303-.025-.075a9.581 9.581 0 0 0-2.097-3.562c-1.636-1.697-3.818-2.666-6.181-2.666-2.364 0-4.546.848-6.243 2.484a8.198 8.198 0 0 0-2.424 4.485l-.424-.666c-.182-.303-.546-.364-.849-.182-.303.182-.363.545-.182.848l1.334 2.06c.182.243.545.365.848.122l1.818-1.515c.243-.182.303-.606.061-.849-.182-.242-.606-.303-.848-.06l-.728.545a7.625 7.625 0 0 1 2.121-3.94C16 8 17.88 7.214 19.94 7.214c2 0 3.94.848 5.334 2.302.936.878 1.59 1.924 1.906 3.032l.033.12z"/>
        <path d="M14.91 14.848A5.082 5.082 0 0 0 20 19.94a5.082 5.082 0 0 0 5.09-5.09A5.082 5.082 0 0 0 20 9.757c-2.848 0-5.09 2.242-5.09 5.09z"/>
    </g>
</svg>
