<svg xmlns="http://www.w3.org/2000/svg" width="16" height="14" viewBox="0 0 16 14">
    <path fill="#FFF" fill-rule="nonzero" d="M15.969 1.566a6.55 6.55 0 0 1-1.882.516 3.286 3.286 0 0 0 1.44-1.813 6.559 6.559 0 0 1-2.08.795 3.276 3.276 0 0 0-5.583 2.988A9.301 9.301 0 0 1 1.113.63a3.275 3.275 0 0 0 1.014 4.374 3.263 3.263 0 0 1-1.484-.41v.042A3.278 3.278 0 0 0 3.27 7.847a3.282 3.282 0 0 1-1.48.056 3.28 3.28 0 0 0 3.06 2.276A6.573 6.573 0 0 1 0 11.535a9.272 9.272 0 0 0 5.022 1.472c6.026 0 9.322-4.992 9.322-9.321a9.51 9.51 0 0 0-.01-.424 6.656 6.656 0 0 0 1.635-1.696z"/>
</svg>
